<svg width="24" height="24" viewBox="0 0 24 24" fill="none" xmlns="http://www.w3.org/2000/svg">
<path opacity="0.987" fill-rule="evenodd" clip-rule="evenodd" d="M10.8135 1.5915C11.901 1.47 12.5445 1.47 13.713 1.5915C15.7814 1.89764 17.6988 2.85373 19.188 4.3215C18.1817 5.2727 17.1886 6.23779 16.209 7.2165C14.333 5.6265 12.239 5.2595 9.927 6.1155C8.231 6.8955 7.05 8.1595 6.384 9.9075C5.29566 9.09724 4.2215 8.26812 3.162 7.4205C3.08837 7.38174 3.00427 7.36755 2.922 7.38C4.605 4.135 7.235 2.205 10.812 1.59" fill="#F44336"/>
<path opacity="0.997" fill-rule="evenodd" clip-rule="evenodd" d="M2.91901 7.38C3.00401 7.367 3.08451 7.3805 3.16051 7.4205C4.22001 8.26812 5.29417 9.09725 6.38251 9.9075C6.21125 10.5886 6.10329 11.284 6.06001 11.985C6.09701 12.663 6.20451 13.3285 6.38251 13.9815L3.00001 16.674C1.52701 13.596 1.50001 10.498 2.91901 7.38Z" fill="#FFC107"/>
<path opacity="0.999" fill-rule="evenodd" clip-rule="evenodd" d="M19.0275 19.935C17.9743 19.0062 16.8717 18.1349 15.7245 17.325C16.8745 16.513 17.5725 15.399 17.8185 13.983H12.183V10.0695C15.433 10.0425 18.6815 10.07 21.9285 10.152C22.5445 13.497 21.833 16.513 19.794 19.2C19.5515 19.4577 19.2947 19.703 19.0275 19.935Z" fill="#448AFF"/>
<path opacity="0.993" fill-rule="evenodd" clip-rule="evenodd" d="M6.3825 13.983C7.6125 17.04 9.8675 18.467 13.1475 18.264C14.0682 18.1574 14.951 17.8358 15.7245 17.325C16.8725 18.137 17.9735 19.007 19.0275 19.935C17.3575 21.4357 15.2282 22.3261 12.987 22.461C12.4778 22.5017 11.9662 22.5017 11.457 22.461C7.639 22.011 4.82 20.082 3 16.674L6.3825 13.983Z" fill="#43A047"/>
</svg>
